{
  "accessors": [
    {
      "bufferView": 1,
      "componentType": 5126,
      "count": 720,
      "max": [
        0.95105999708175659,
        1,
        2.8764200210571289
      ],
      "min": [
        -0.95105999708175659,
        -1,
        -1
      ],
      "type": "VEC3"
    },
    {
      "bufferView": 1,
      "byteOffset": 8640,
      "componentType": 5126,
      "count": 720,
      "max": [
        0.99207723140716553,
        0.94352102279663086,
        0.94352495670318604
      ],
      "min": [
        -0.99207723140716553,
        -0.94352102279663086,
        -0.94352495670318604
      ],
      "type": "VEC3"
    },
    {
      "bufferView": 0,
      "componentType": 5125,
      "count": 720,
      "max": [
        719
      ],
      "min": [
        0
      ],
      "type": "SCALAR"
    },
    {
      "bufferView": 1,
      "byteOffset": 17280,
      "componentType": 5126,
      "count": 1651,
      "max": [
        0.70389002561569214,
        0.65103000402450562,
        3.3626699447631836
      ],
      "min": [
        -0.575469970703125,
        -0.78854000568389893,
        1.0054399967193604
      ],
      "type": "VEC3"
    },
    {
      "bufferView": 1,
      "byteOffset": 37092,
      "componentType": 5126,
      "count": 1651,
      "max": [
        0.99207723140716553,
        0.97568464279174805,
        0.99993830919265747
      ],
      "min": [
        -0.99207723140716553,
        -0.97568511962890625,
        -0.99081021547317505
      ],
      "type": "VEC3"
    },
    {
      "bufferView": 0,
      "byteOffset": 2880,
      "componentType": 5125,
      "count": 1764,
      "max": [
        1650
      ],
      "min": [
        0
      ],
      "type": "SCALAR"
    },
    {
      "bufferView": 1,
      "byteOffset": 56904,
      "componentType": 5126,
      "count": 881,
      "max": [
        1.7072000503540039,
        0.28461998701095581,
        2.1095199584960938
      ],
      "min": [
        -1.7333799600601196,
        -0.84861999750137329,
        1.1071200370788574
      ],
      "type": "VEC3"
    },
    {
      "bufferView": 1,
      "byteOffset": 67476,
      "componentType": 5126,
      "count": 881,
      "max": [
        0.99858081340789795,
        0.99801570177078247,
        0.99783152341842651
      ],
      "min": [
        -0.99858081340789795,
        -0.98747682571411133,
        -0.98780131340026855
      ],
      "type": "VEC3"
    },
    {
      "bufferView": 0,
      "byteOffset": 9936,
      "componentType": 5125,
      "count": 1392,
      "max": [
        880
      ],
      "min": [
        0
      ],
      "type": "SCALAR"
    },
    {
      "bufferView": 1,
      "byteOffset": 78048,
      "componentType": 5126,
      "count": 966,
      "max": [
        0.65271002054214478,
        0.65271002054214478,
        2.9789299964904785
      ],
      "min": [
        -0.65271002054214478,
        -0.82564997673034668,
        1.1966400146484375
      ],
      "type": "VEC3"
    },
    {
      "bufferView": 1,
      "byteOffset": 89640,
      "componentType": 5126,
      "count": 966,
      "max": [
        0.96592593193054199,
        0.96831244230270386,
        1
      ],
      "min": [
        -0.96893256902694702,
        -0.96708416938781738,
        -0.98019683361053467
      ],
      "type": "VEC3"
    },
    {
      "bufferView": 0,
      "byteOffset": 15504,
      "componentType": 5125,
      "count": 1734,
      "max": [
        965
      ],
      "min": [
        0
      ],
      "type": "SCALAR"
    },
    {
      "bufferView": 1,
      "byteOffset": 101232,
      "componentType": 5126,
      "count": 112,
      "max": [
        0.068219996988773346,
        -0.49006998538970947,
        2.2853999137878418
      ],
      "min": [
        -0.068219996988773346,
        -0.82310998439788818,
        2.1489601135253906
      ],
      "type": "VEC3"
    },
    {
      "bufferView": 1,
      "byteOffset": 102576,
      "componentType": 5126,
      "count": 112,
      "max": [
        0.92388087511062622,
        1,
        0.92387723922729492
      ],
      "min": [
        -0.92388087511062622,
        -1,
        -0.92388087511062622
      ],
      "type": "VEC3"
    },
    {
      "bufferView": 0,
      "byteOffset": 22440,
      "componentType": 5125,
      "count": 180,
      "max": [
        111
      ],
      "min": [
        0
      ],
      "type": "SCALAR"
    }
  ],
  "asset": {
    "extras": {
      "author": "BlenderItUp (https://sketchfab.com/flatalex123)",
      "license": "CC-BY-4.0 (http://creativecommons.org/licenses/by/4.0/)",
      "source": "https://sketchfab.com/models/65649513903f49dfaf00eaf843186780",
      "title": "Snowman"
    },
    "generator": "Sketchfab-3.23.4",
    "version": "2.0"
  },
  "bufferViews": [
    {
      "buffer": 0,
      "byteLength": 23160,
      "byteOffset": 0,
      "name": "floatBufferViews",
      "target": 34963
    },
    {
      "buffer": 0,
      "byteLength": 103920,
      "byteOffset": 23160,
      "byteStride": 12,
      "name": "floatBufferViews",
      "target": 34962
    }
  ],
  "buffers": [
    {
      "byteLength": 127080,
      "uri": "scene.bin"
    }
  ],
  "materials": [
    {
      "doubleSided": true,
      "emissiveFactor": [
        0,
        0,
        0
      ],
      "name": "White",
      "pbrMetallicRoughness": {
        "baseColorFactor": [
          0.80000001190000003,
          0.80000001190000003,
          0.80000001190000003,
          1
        ],
        "metallicFactor": 0,
        "roughnessFactor": 0.59999999999999998
      }
    },
    {
      "doubleSided": true,
      "emissiveFactor": [
        0,
        0,
        0
      ],
      "name": "Black",
      "pbrMetallicRoughness": {
        "baseColorFactor": [
          0.046961564599999998,
          0.046961564599999998,
          0.046961564599999998,
          1
        ],
        "metallicFactor": 0,
        "roughnessFactor": 0.59999999999999998
      }
    },
    {
      "doubleSided": true,
      "emissiveFactor": [
        0,
        0,
        0
      ],
      "name": "Brown",
      "pbrMetallicRoughness": {
        "baseColorFactor": [
          0.036567967399999998,
          0.073235385099999994,
          0.0281960554,
          1
        ],
        "metallicFactor": 0,
        "roughnessFactor": 0.59999999999999998
      }
    },
    {
      "doubleSided": true,
      "emissiveFactor": [
        0,
        0,
        0
      ],
      "name": "material",
      "pbrMetallicRoughness": {
        "baseColorFactor": [
          0.80000007149999997,
          0,
          0.0036706449000000001,
          1
        ],
        "metallicFactor": 0,
        "roughnessFactor": 0.59999999999999998
      }
    },
    {
      "doubleSided": true,
      "emissiveFactor": [
        0,
        0,
        0
      ],
      "name": "Orange",
      "pbrMetallicRoughness": {
        "baseColorFactor": [
          1,
          0.37626212840000001,
          0,
          1
        ],
        "metallicFactor": 0,
        "roughnessFactor": 0.59999999999999998
      }
    }
  ],
  "meshes": [
    {
      "name": "Icosphere_0",
      "primitives": [
        {
          "attributes": {
            "NORMAL": 1,
            "POSITION": 0
          },
          "indices": 2,
          "material": 0,
          "mode": 4
        }
      ]
    },
    {
      "name": "Icosphere_1",
      "primitives": [
        {
          "attributes": {
            "NORMAL": 4,
            "POSITION": 3
          },
          "indices": 5,
          "material": 1,
          "mode": 4
        }
      ]
    },
    {
      "name": "Icosphere_2",
      "primitives": [
        {
          "attributes": {
            "NORMAL": 7,
            "POSITION": 6
          },
          "indices": 8,
          "material": 2,
          "mode": 4
        }
      ]
    },
    {
      "name": "Icosphere_3",
      "primitives": [
        {
          "attributes": {
            "NORMAL": 10,
            "POSITION": 9
          },
          "indices": 11,
          "material": 3,
          "mode": 4
        }
      ]
    },
    {
      "name": "Icosphere_4",
      "primitives": [
        {
          "attributes": {
            "NORMAL": 13,
            "POSITION": 12
          },
          "indices": 14,
          "material": 4,
          "mode": 4
        }
      ]
    }
  ],
  "nodes": [
    {
      "children": [
        1
      ],
      "name": "RootNode (gltf orientation matrix)",
      "rotation": [
        -0.70710678118654746,
        -0,
        -0,
        0.70710678118654757
      ]
    },
    {
      "children": [
        2
      ],
      "name": "RootNode (model correction matrix)"
    },
    {
      "children": [
        3
      ],
      "name": "Root"
    },
    {
      "children": [
        4,
        5,
        6,
        7,
        8
      ],
      "name": "Icosphere"
    },
    {
      "mesh": 0,
      "name": "Icosphere_0"
    },
    {
      "mesh": 1,
      "name": "Icosphere_1"
    },
    {
      "mesh": 2,
      "name": "Icosphere_2"
    },
    {
      "mesh": 3,
      "name": "Icosphere_3"
    },
    {
      "mesh": 4,
      "name": "Icosphere_4"
    }
  ],
  "scene": 0,
  "scenes": [
    {
      "name": "OSG_Scene",
      "nodes": [
        0
      ]
    }
  ]
}

